<?xml version="1.0" encoding="UTF-8" standalone="no"?>
<svg
   xmlns:dc="http://purl.org/dc/elements/1.1/"
   xmlns:cc="http://creativecommons.org/ns#"
   xmlns:rdf="http://www.w3.org/1999/02/22-rdf-syntax-ns#"
   xmlns:svg="http://www.w3.org/2000/svg"
   xmlns="http://www.w3.org/2000/svg"
   xmlns:sodipodi="http://sodipodi.sourceforge.net/DTD/sodipodi-0.dtd"
   xmlns:inkscape="http://www.inkscape.org/namespaces/inkscape"
   width="82.290123mm"
   height="80.314934mm"
   viewBox="0 0 82.290123 80.314934"
   version="1.1"
   id="svg1531"
   inkscape:version="1.0.1 (3bc2e813f5, 2020-09-07)"
   sodipodi:docname="bittwn-cookie.svg">
  <defs
     id="defs1525">
    <inkscape:path-effect
       effect="powermask"
       id="path-effect1497"
       is_visible="true"
       lpeversion="1"
       uri="#mask-powermask-path-effect1497"
       invert="false"
       hide_mask="false"
       background="true"
       background_color="#ffffffff" />
  </defs>
  <sodipodi:namedview
     id="base"
     pagecolor="#ffffff"
     bordercolor="#666666"
     borderopacity="1.0"
     inkscape:pageopacity="0.0"
     inkscape:pageshadow="2"
     inkscape:zoom="0.98994949"
     inkscape:cx="68.016052"
     inkscape:cy="264.41549"
     inkscape:document-units="mm"
     inkscape:current-layer="layer1"
     inkscape:document-rotation="0"
     showgrid="false"
     inkscape:window-width="1920"
     inkscape:window-height="1017"
     inkscape:window-x="-8"
     inkscape:window-y="-8"
     inkscape:window-maximized="1" />
  <metadata
     id="metadata1528">
    <rdf:RDF>
      <cc:Work
         rdf:about="">
        <dc:format>image/svg+xml</dc:format>
        <dc:type
           rdf:resource="http://purl.org/dc/dcmitype/StillImage" />
        <dc:title></dc:title>
      </cc:Work>
    </rdf:RDF>
  </metadata>
  <g
     inkscape:label="Layer 1"
     inkscape:groupmode="layer"
     id="layer1"
     transform="translate(-77.539458,-55.84849)">
    <g
       id="g1673-6-5-8"
       transform="matrix(0.35277777,0,0,-0.35277777,61.514208,313.63854)"
       mask="none">
      <g
         id="g891-9-1-7"
         transform="translate(161.21326,730.74048)">
        <path
           d="m 0,0 c -63.182,-0.447 -114.905,-51.806 -115.776,-114.983 -0.714,-51.784 32.328,-95.946 78.524,-111.905 3.059,-1.057 6.456,-0.174 8.578,2.271 7.732,8.908 17.105,20.77 21.798,30.741 3.321,7.059 5.23,27.76 6.319,50.802 0,0 -0.508,66.863 1.358,55.752 l -0.012,-55.752 c 1.089,-23.042 2.998,-43.743 6.32,-50.802 4.73,-10.051 14.219,-22.029 21.987,-30.961 2.195,-2.523 5.698,-3.455 8.868,-2.391 46.215,15.504 79.512,59.163 79.512,110.599 C 117.476,-51.934 64.801,0.459 0,0"
           style="fill:#eab363;fill-opacity:1;fill-rule:nonzero;stroke:none"
           id="path893-4-8-6" />
      </g>
      <g
         id="g895-7-9-3"
         transform="translate(79.81176,538.62568)">
        <path
           d="m 0,0 c 0,0 20.503,-27.998 44.503,-31.177 11,0 9,13.938 0,13.938 C 36.503,-17.239 5.135,-5.991 0,0"
           style="fill:#8c5e28;fill-opacity:1;fill-rule:nonzero;stroke:none"
           id="path897-1-4-6" />
      </g>
      <g
         id="g899-7-9-0"
         transform="translate(241.81816,538.62568)">
        <path
           d="m 0,0 c 0,0 -20.503,-27.998 -44.503,-31.177 -10,0 -9,13.938 0,13.938 8,0 39.368,11.248 44.503,17.239"
           style="fill:#8c5e28;fill-opacity:1;fill-rule:nonzero;stroke:none"
           id="path901-8-8-2" />
      </g>
      <g
         id="g903-5-4-7"
         transform="translate(71.01956,677.63708)">
        <path
           d="M 0,0 C 0,0 36.83,47.682 91.038,47.682 145.247,47.682 182.659,0 182.659,0 182.659,0 100.499,88.028 0,0"
           style="fill:#8c5e28;fill-opacity:1;fill-rule:nonzero;stroke:none"
           id="path905-9-3-2" />
      </g>
      <g
         id="g907-0-8-7"
         transform="translate(161.98216,677.63708)">
        <path
           d="m 0,0 c 0,0 -31.199,2.934 -23.11,-41.813 5.457,-30.191 14.069,-55.037 19.096,-68.008 0.775,6.201 1.409,12.918 1.926,19.85 0,0 -0.801,66.864 2.139,55.752 L 0.032,-89.97 c 0.626,-8.412 1.426,-16.507 2.441,-23.745 4.604,11.382 14.571,38.341 20.637,71.902 C 31.199,2.934 0,0 0,0"
           style="fill:#e2942d;fill-opacity:1;fill-rule:nonzero;stroke:none"
           id="path909-6-7-0" />
      </g>
      <g
         id="g911-3-0-0"
         transform="translate(124.57016,654.89648)">
        <path
           d="M 0,0 C 0,0 8.069,40.241 37.412,40.241 66.755,40.241 71.89,0 71.89,0 c 0,0 34.478,4.829 32.277,20.12 -2.201,15.292 -44.014,37.022 -66.755,37.022 -22.741,0 -66.021,-14.487 -66.755,-32.193 C -30.076,7.243 -10.27,3.219 0,0"
           style="fill:#f4cd9a;fill-opacity:1;fill-rule:nonzero;stroke:none"
           id="path913-2-9-7" />
      </g>
      <g
         id="g915-8-7-0"
         transform="translate(68.57426,554.64188)">
        <path
           d="m 0,0 c 0,0 -21.029,30.321 -19.562,57.219 1.467,26.897 9.744,39.123 9.744,39.123 0,0 -16.101,-33.744 9.818,-96.342"
           style="fill:#8c5e28;fill-opacity:1;fill-rule:nonzero;stroke:none"
           id="path917-1-2-9" />
      </g>
      <g
         id="g939-8-1-1"
         transform="translate(253.60506,554.64188)">
        <path
           d="M 0,0 C 0,0 21.029,30.321 19.562,57.219 18.095,84.116 9.818,96.342 9.818,96.342 9.818,96.342 25.919,62.598 0,0"
           style="fill:#8c5e28;fill-opacity:1;fill-rule:nonzero;stroke:none"
           id="path941-9-1-0" />
      </g>
    </g>
    <g
       id="g1495"
       transform="matrix(0.34714445,-0.06279242,-0.06279242,-0.34714445,-141.85111,448.87881)"
       style="fill:#000000;fill-opacity:1">
      <g
         id="g1491"
         transform="matrix(0.62460453,0,0,0.62460453,77.429119,371.72084)"
         style="fill:#000000;fill-opacity:1">
        <circle
           style="fill:#000000;fill-opacity:1;stroke:#000000;stroke-width:0"
           id="circle1481"
           cx="1387.6729"
           cy="-899.49414"
           r="45.611588"
           transform="scale(1,-1)" />
        <circle
           style="fill:#000000;fill-opacity:1;stroke:#000000;stroke-width:0"
           id="circle1483"
           cx="1421.0337"
           cy="-790.30896"
           transform="scale(1,-1)"
           r="40.658867" />
        <circle
           style="fill:#000000;fill-opacity:1;stroke:#000000;stroke-width:0"
           id="circle1485"
           cx="1370.6018"
           cy="-831.89001"
           r="34.066467"
           transform="scale(1,-1)" />
        <circle
           style="fill:#000000;fill-opacity:1;stroke:#000000;stroke-width:0"
           id="circle1487"
           cx="1478.4369"
           cy="-774.91248"
           r="34.066467"
           transform="scale(1,-1)" />
        <circle
           style="fill:#000000;fill-opacity:1;stroke:#000000;stroke-width:0"
           id="circle1489"
           cx="1534.3998"
           cy="-799.33264"
           r="40.658867"
           transform="scale(1,-1)" />
      </g>
      <ellipse
         style="fill:#000000;fill-opacity:1;stroke:#000000;stroke-width:0"
         id="ellipse1493"
         cx="1006.3139"
         cy="-929.57343"
         transform="scale(1,-1)"
         rx="69.190445"
         ry="70.207947" />
    </g>
    <g
       id="g1457-6-5"
       transform="matrix(0.14758553,0,0,-0.14758553,132.69873,84.532795)">
      <g
         id="g1011-4-2"
         transform="translate(155.8063,109.14231)">
        <path
           d="m 0,0 c 0,0 14.5,-9.858 13.411,-14.234 -1.088,-4.376 -10.088,-6.821 -10.088,-6.821 0,0 -9,-6.473 -12,-6.473 -3,0 -6.167,7.404 -6.167,7.404 L -18.677,0 Z"
           style="fill:#ffd399;fill-opacity:1;fill-rule:nonzero;stroke:none"
           id="path1013-7-8" />
      </g>
      <g
         id="g1023-2-7"
         transform="translate(145.5038,95.128608)">
        <path
           d="M 0,0 22.641,3.075 C 19.405,7.822 10.302,14.014 10.302,14.014 H -8.375 L -4.541,-6.11 c 0,0 3.166,-7.404 6.166,-7.404 0.251,0 0.557,0.06 0.884,0.143 z"
           style="fill:#eab363;fill-opacity:1;fill-rule:nonzero;stroke:none"
           id="path1025-8-7" />
      </g>
    </g>
    <g
       id="g1451-1-0"
       transform="matrix(0.20833598,0,0,-0.20833598,117.47213,100.96016)">
      <g
         id="g1063-5-8"
         transform="translate(155.8063,66.14231)">
        <path
           d="m 0,0 c 0,0 3.489,-16.667 11.489,-18 8,-1.333 15.334,12.667 15.334,12.667 0,0 -10.281,7.987 -26.823,5.333"
           style="fill:#eab363;fill-opacity:1;fill-rule:nonzero;stroke:none"
           id="path1065-3-2" />
      </g>
      <g
         id="g1067-0-5"
         transform="translate(176.2174,64.17361)">
        <path
           d="m 0,0 c -4.651,1.796 -11.653,3.374 -20.411,1.969 0,0 1.604,-7.648 5.126,-12.997 C -10.507,-8.201 -3.686,-3.84 0,0"
           style="fill:#ffd399;fill-opacity:1;fill-rule:nonzero;stroke:none"
           id="path1069-5-0" />
      </g>
    </g>
  </g>
</svg>
