<svg width="405" height="395" viewBox="0 0 405 395" fill="none" xmlns="http://www.w3.org/2000/svg">
<mask id="mask0" mask-type="alpha" maskUnits="userSpaceOnUse" x="0" y="0" width="405" height="395">
<path fill-rule="evenodd" clip-rule="evenodd" d="M405 395V167.198C404.184 166.884 403.378 166.546 402.583 166.185C401.15 182.341 389.103 196.199 372.363 199.222C358.084 201.802 344.237 195.803 336.124 184.902C329.699 193.021 320.401 198.922 309.407 200.908C285.448 205.235 262.509 189.328 258.17 165.378C257.555 161.98 257.347 158.603 257.511 155.297C254.1 157.171 250.331 158.533 246.289 159.263C226.215 162.888 206.995 149.56 203.359 129.494C200.506 113.741 208.105 98.5189 221.214 90.9474C208.535 84.0283 198.983 71.6461 196.209 56.3332C191.636 31.0898 207.111 6.86304 231.291 0H0V395H405Z" fill="#C4C4C4"/>
</mask>
<g mask="url(#mask0)">
<path d="M201.034 0.00523478C91.3353 0.780784 1.53197 89.8892 0.0197085 199.502C-1.21996 289.348 56.1487 365.969 136.356 393.658C141.667 395.492 147.565 393.96 151.249 389.718C164.674 374.263 180.948 353.682 189.096 336.382C194.862 324.135 198.176 288.218 200.067 248.24C200.067 248.24 199.185 132.232 202.425 151.51L202.404 248.24C204.295 288.218 207.609 324.135 213.377 336.382C221.589 353.821 238.064 374.603 251.552 390.1C255.363 394.477 261.445 396.094 266.948 394.248C347.189 367.349 405 291.6 405 202.358C405 90.1112 313.544 -0.791135 201.034 0.00523478Z" fill="#EAB363"/>
<path d="M59.7019 333.326C59.7019 333.326 95.2999 381.903 136.97 387.419C156.068 387.419 152.596 363.236 136.97 363.236C123.08 363.236 68.6174 343.721 59.7019 333.326Z" fill="#8C5E28"/>
<path d="M340.983 333.326C340.983 333.326 305.385 381.903 263.715 387.419C246.353 387.419 248.089 363.236 263.715 363.236C277.605 363.236 332.068 343.721 340.983 333.326" fill="#8C5E28"/>
<path d="M44.4366 92.1401C44.4366 92.1401 108.382 9.41135 202.5 9.41135C296.62 9.41135 361.576 92.1401 361.576 92.1401C361.576 92.1401 218.926 -60.5894 44.4366 92.1401Z" fill="#8C5E28"/>
<path d="M202.369 92.1401C202.369 92.1401 148.2 87.0496 162.245 164.686C171.719 217.068 186.672 260.176 195.4 282.681C196.745 271.922 197.846 260.268 198.744 248.241C198.744 248.241 197.353 132.231 202.458 151.51L202.425 248.239C203.512 262.834 204.901 276.879 206.663 289.437C214.656 269.689 231.962 222.915 242.494 164.686C256.538 87.0496 202.369 92.1401 202.369 92.1401Z" fill="#E2942D"/>
<path d="M137.413 131.595C137.413 131.595 151.423 61.7768 202.369 61.7768C253.315 61.7768 262.231 131.595 262.231 131.595C262.231 131.595 322.093 123.217 318.271 96.6869C314.45 70.1552 241.853 32.4534 202.369 32.4534C162.885 32.4534 87.7411 57.5885 86.4667 88.3086C85.194 119.029 119.582 126.01 137.413 131.595Z" fill="#F4CD9A"/>
<path d="M40.191 305.538C40.191 305.538 3.67969 252.931 6.22675 206.262C8.77381 159.596 23.1446 138.384 23.1446 138.384C23.1446 138.384 -4.8105 196.93 40.191 305.538" fill="#8C5E28"/>
<path d="M361.448 305.538C361.448 305.538 397.959 252.931 395.412 206.262C392.865 159.596 378.494 138.384 378.494 138.384C378.494 138.384 406.449 196.93 361.448 305.538Z" fill="#8C5E28"/>
</g>
<path d="M384.643 61.8529C384.643 61.8529 395.176 69.0083 394.385 72.1846C393.594 75.3609 387.057 77.1356 387.057 77.1356C387.057 77.1356 380.52 81.834 378.341 81.834C376.162 81.834 373.861 76.4598 373.861 76.4598L371.077 61.8529H384.643Z" fill="#FFD399"/>
<path d="M377.16 72.0249L393.606 69.7929C391.255 66.3473 384.643 61.8529 384.643 61.8529H371.077L373.862 76.4598C373.862 76.4598 376.162 81.8339 378.341 81.8339C378.523 81.8339 378.745 81.7904 378.983 81.7302L377.16 72.0249Z" fill="#EAB363"/>
<path d="M356.289 154.094C356.289 154.094 359.866 171.172 368.069 172.538C376.272 173.903 383.792 159.559 383.792 159.559C383.792 159.559 373.25 151.375 356.289 154.094Z" fill="#EAB363"/>
<path d="M377.217 156.112C372.449 154.271 365.269 152.654 356.289 154.094C356.289 154.094 357.934 161.93 361.545 167.411C366.444 164.515 373.438 160.046 377.217 156.112Z" fill="#FFD399"/>
</svg>
