<?xml version="1.0" encoding="UTF-8"?>
<svg width="73.11mm" height="52.817mm" version="1.1" viewBox="0 0 73.11 52.817" xmlns="http://www.w3.org/2000/svg" xmlns:cc="http://creativecommons.org/ns#" xmlns:dc="http://purl.org/dc/elements/1.1/" xmlns:rdf="http://www.w3.org/1999/02/22-rdf-syntax-ns#">
 <metadata>
  <rdf:RDF>
   <cc:Work rdf:about="">
    <dc:format>image/svg+xml</dc:format>
    <dc:type rdf:resource="http://purl.org/dc/dcmitype/StillImage"/>
    <dc:title/>
   </cc:Work>
  </rdf:RDF>
 </metadata>
 <g transform="translate(-132.78 -121)">
  <g transform="matrix(.35107 -.034712 -.034712 -.35107 5.6277 110.84)">
   <g transform="translate(406.08 -69.11)">
    <path d="m0 0s41.184-35.053 79.011-66.127 67.832-33.68 67.866-41.133c0.034-7.454-10.086-11.078-47.702-13.217-37.617-2.139-88.575-33.735-125.34-27.224 0 0-26.469 37.863-32.13 63.24-5.661 25.376 58.291 84.461 58.291 84.461" fill="#eab363"/>
   </g>
   <g transform="translate(385.04 -217.47)">
    <path d="m0 0c9.999 37.366 22.699 118.62 26.515 143.71-3.492 2.96-5.473 4.646-5.473 4.646s-63.951-59.085-58.29-84.462c5.66-25.376 32.129-63.239 32.129-63.239 1.678-0.297 3.385-0.513 5.119-0.658" fill="#ffd399"/>
   </g>
   <g transform="translate(400.97 -86.485)">
    <path d="m0 0s-38.069-46.743-40.702-57.787c-2.633-11.043 14.836-50.021 14.836-50.021s26.465 95.899 25.866 107.81" fill="#8c5e28"/>
   </g>
   <g transform="translate(419.03 -88.787)">
    <path d="m0 0s33.333-32.66 39.333-34.462-6-15.889-16-10.845c-10 5.043-30.815 4.339-30.815 4.339z" fill="#f4cd9a"/>
   </g>
  </g>
 </g>
</svg>
