<?xml version="1.0" encoding="UTF-8"?>
<svg width="102.69mm" height="87.693mm" version="1.1" viewBox="0 0 102.69 87.693" xmlns="http://www.w3.org/2000/svg" xmlns:cc="http://creativecommons.org/ns#" xmlns:dc="http://purl.org/dc/elements/1.1/" xmlns:rdf="http://www.w3.org/1999/02/22-rdf-syntax-ns#">
 <defs>
  <clipPath id="clipPath1177-9">
   <path d="m0 780h1096v-780h-1096z"/>
  </clipPath>
  <clipPath id="clipPath1205-3">
   <path d="m910.5 146.18h63.07v-56.896h-63.07z"/>
  </clipPath>
  <clipPath id="clipPath1221-3">
   <path d="m850.01 207.45h66.345v-44.622h-66.345z"/>
  </clipPath>
 </defs>
 <metadata>
  <rdf:RDF>
   <cc:Work rdf:about="">
    <dc:format>image/svg+xml</dc:format>
    <dc:type rdf:resource="http://purl.org/dc/dcmitype/StillImage"/>
    <dc:title/>
   </cc:Work>
  </rdf:RDF>
 </metadata>
 <g transform="translate(-80.191 -51.404)">
  <g transform="matrix(.35278 0 0 -.35278 -184.87 146.76)">
   <g clip-path="url(#clipPath1177-9)">
    <g transform="translate(932.63 166.45)">
     <path d="m0 0s-17.365-4.998-22.591-3.76c-5.227 1.238-11.318 4.572-15.068 4.061-3.75-0.51-40.887-0.56-45.323 2.419s-11.437 46.678 32.322 71.812c43.76 25.133 89.554 32.999 102.35 27.813 12.798-5.187 24.949-20.919 26.578-29.207 1.628-8.287 3.622-11.519 5.534-13.182 1.913-1.662 18.597-17.41 23.692-31.811 5.095-14.402 2.617-51.356-16.266-67.071s-54.195-43.493-89.21-34.744c-35.016 8.748-17.051 10.693-18.691 15.58s-4.169 30.438 16.672 58.09" fill="#eab363"/>
    </g>
    <g transform="translate(922.65 101.97)">
     <path d="m0 0s82.293-0.364 111.93 50.534c0 0-16.857-35.25-48.977-46.997-32.12-11.748-55.136-12.194-61.138-8.163-6.001 4.03-1.815 4.626-1.815 4.626" fill="#8c5e28"/>
    </g>
    <g transform="translate(898.56 166.41)">
     <path d="m0 0c26.887 18.827 72.094 84.163 79.003 88.371 7.687 4.681 9.86 2.843 0.453-20.75s-45.384-67.582-45.384-67.582-17.365-4.998-22.592-3.76c-3.78 0.895-8.008 2.881-11.48 3.721" fill="#e2942d"/>
    </g>
    <g transform="translate(1016.2 224.31)">
     <path d="m0 0s3.965-13.264 5.442-15.013c1.476-1.748 14.905-26.29 13.111-41.365s6.118 4.6 4.147 14.632c-1.972 10.031-9.661 30.718-22.7 41.746" fill="#8c5e28"/>
    </g>
    <g transform="translate(976.79 215.94)">
     <path d="m0 0s17.985 36.305 11.524 40.969c-6.462 4.663-11.862 8.951-7.929 10.414 3.933 1.464 20.535-12.276 24.09-21.267 3.555-8.992 4.34-29.251 7.525-31.65 3.186-2.399-15.788 1.092-14.223 15.326 1.564 14.233-4.673-15.688-20.987-13.792" fill="#f4cd9a"/>
    </g>
    <g clip-path="url(#clipPath1205-3)" opacity=".10001">
     <g transform="translate(910.5 146.16)">
      <path d="m0 0s65.501 2.915 63-56.873c0 0-60.49 28.894-63 56.873"/>
     </g>
    </g>
    <g clip-path="url(#clipPath1221-3)" opacity=".10001">
     <g transform="translate(850.27 207.45)">
      <path d="m0 0 66.087-44.622s-46.023 5.468-57.356 14.486-8.731 30.136-8.731 30.136"/>
     </g>
    </g>
    <g transform="translate(927.86 44.656)">
     <path d="m0 0s15.77-3.813 11.354-12.605c-4.415-8.792-29.016-5.993-44.155 1.438-15.139 7.432-100.3 49.695-111.02 62.311 0 0 71.911-44.931 93.358-45.174s50.463-5.97 50.463-5.97z" fill="none" stroke="#000" stroke-miterlimit="10"/>
    </g>
    <g transform="translate(790.97 56.673)">
     <path d="m0 0s41.632-1.974 56.771-12.017 59.295-28.336 87.05-21.397 5.046 29.017 0 36.586c-5.046 7.57-10.724 17.032-10.724 17.032s39.74-11.335 49.202-4.721c9.462 6.613 4.328 13.552-5.406 23.014-9.733 9.461-99.936 104.08-117.6 112.28-17.663 8.2-30.909-6.308-30.909-6.308l-28.386-27.124s-27.124-2.523-30.278-6.939c-3.154-4.415-12.616-20.185-8.2-32.801 4.415-12.616 12.615-31.54 12.615-37.848s-8.831-29.053 25.863-39.758" fill="#eab363"/>
    </g>
    <g transform="translate(779.5 103.69)">
     <path d="m0 0s-1.917 1.748-4.628 4.763c1.387-1.66 2.925-3.257 4.628-4.763" fill="#8c5e28"/>
    </g>
    <g transform="translate(795.14 178)">
     <path d="m0 0" fill="#8c5e28"/>
    </g>
    <g transform="translate(790.11 173.93)">
     <path d="m0 0c-3.429-0.35-16.308-1.77-23.939-4.079-2.281-3.532-4.574-7.775-6.738-12.867-8.048-18.935 7.281-39.464 15.434-48.53-13.634 16.31-12.736 38.787-11.019 42.222 1.397 2.793 17.776 16.345 26.262 23.254" fill="#8c5e28"/>
    </g>
    <g transform="translate(958.59 70.251)">
     <path d="m0 0c-23.77 28.053-112.07 131.81-115.89 129.63-4.416-2.523 81.372-123 81.372-123s19.577-5.583 34.521-6.626" fill="#e2942d"/>
    </g>
    <g transform="translate(927.86 44.656)">
     <path d="m0 0s15.77-3.813 11.354-12.605c-4.415-8.792-29.016-5.993-44.155 1.438-15.139 7.432-100.3 49.695-111.02 62.311 0 0 71.911-44.931 93.358-45.174s50.463-5.97 50.463-5.97" fill="#8c5e28"/>
    </g>
    <g transform="translate(839.88 204.62)">
     <path d="m0 0s-6.719 3.02-21.77-13.81-29.027-27.927-31.178-28.291c-2.15-0.364 13.977-24.919 24.19-13.179 10.213 11.739 15.588 36.453 23.651 28.665 8.063-7.787 12.836-3.988 7.762 7.551-5.074 11.538-2.655 19.064-2.655 19.064" fill="#f4cd9a"/>
    </g>
   </g>
  </g>
 </g>
</svg>
