<?xml version="1.0" encoding="UTF-8"?>
<svg width="82.29mm" height="80.315mm" version="1.1" viewBox="0 0 82.29 80.315" xmlns="http://www.w3.org/2000/svg" xmlns:cc="http://creativecommons.org/ns#" xmlns:dc="http://purl.org/dc/elements/1.1/" xmlns:rdf="http://www.w3.org/1999/02/22-rdf-syntax-ns#">
 <metadata>
  <rdf:RDF>
   <cc:Work rdf:about="">
    <dc:format>image/svg+xml</dc:format>
    <dc:type rdf:resource="http://purl.org/dc/dcmitype/StillImage"/>
    <dc:title/>
   </cc:Work>
  </rdf:RDF>
 </metadata>
 <g transform="translate(-68.97 -40.023)">
  <g transform="matrix(.35278 0 0 -.35278 52.945 297.81)">
   <g transform="translate(161.21 730.74)">
    <path d="m0 0c-63.182-0.447-114.9-51.806-115.78-114.98-0.714-51.784 32.328-95.946 78.524-111.9 3.059-1.057 6.456-0.174 8.578 2.271 7.732 8.908 17.105 20.77 21.798 30.741 3.321 7.059 5.23 27.76 6.319 50.802 0 0-0.508 66.863 1.358 55.752l-0.012-55.752c1.089-23.042 2.998-43.743 6.32-50.802 4.73-10.051 14.219-22.029 21.987-30.961 2.195-2.523 5.698-3.455 8.868-2.391 46.215 15.504 79.512 59.163 79.512 110.6 0 64.695-52.675 117.09-117.48 116.63" fill="#eab363"/>
   </g>
   <g transform="translate(79.812 538.63)">
    <path d="m0 0s20.503-27.998 44.503-31.177c11 0 9 13.938 0 13.938-8 0-39.368 11.248-44.503 17.239" fill="#8c5e28"/>
   </g>
   <g transform="translate(241.82 538.63)">
    <path d="m0 0s-20.503-27.998-44.503-31.177c-10 0-9 13.938 0 13.938 8 0 39.368 11.248 44.503 17.239" fill="#8c5e28"/>
   </g>
   <g transform="translate(71.02 677.64)">
    <path d="m0 0s36.83 47.682 91.038 47.682c54.209 0 91.621-47.682 91.621-47.682s-82.16 88.028-182.66 0" fill="#8c5e28"/>
   </g>
   <g transform="translate(161.98 677.64)">
    <path d="m0 0s-31.199 2.934-23.11-41.813c5.457-30.191 14.069-55.037 19.096-68.008 0.775 6.201 1.409 12.918 1.926 19.85 0 0-0.801 66.864 2.139 55.752l-0.019-55.751c0.626-8.412 1.426-16.507 2.441-23.745 4.604 11.382 14.571 38.341 20.637 71.902 8.089 44.747-23.11 41.813-23.11 41.813" fill="#e2942d"/>
   </g>
   <g transform="translate(124.57 654.9)">
    <path d="m0 0s8.069 40.241 37.412 40.241 34.478-40.241 34.478-40.241 34.478 4.829 32.277 20.12c-2.201 15.292-44.014 37.022-66.755 37.022s-66.021-14.487-66.755-32.193c-0.733-17.706 19.073-21.73 29.343-24.949" fill="#f4cd9a"/>
   </g>
   <g transform="translate(68.574 554.64)">
    <path d="m0 0s-21.029 30.321-19.562 57.219c1.467 26.897 9.744 39.123 9.744 39.123s-16.101-33.744 9.818-96.342" fill="#8c5e28"/>
   </g>
   <g transform="translate(253.61 554.64)">
    <path d="m0 0s21.029 30.321 19.562 57.219c-1.467 26.897-9.744 39.123-9.744 39.123s16.101-33.744-9.818-96.342" fill="#8c5e28"/>
   </g>
  </g>
 </g>
</svg>
