<svg width="376" height="94" viewBox="0 0 376 94" fill="none" xmlns="http://www.w3.org/2000/svg">
<circle cx="188" cy="47" r="44.5" fill="#FFEA31" stroke="#FF5C00" stroke-width="5"/>
<path d="M183.852 51.315V26.565H191.222V51.315H183.852ZM183.852 66V57.695H191.222V66H183.852Z" fill="#FF5C00"/>
<path d="M295.514 59.001C295.514 59.001 299.793 61.9095 299.472 63.2006C299.151 64.4917 296.495 65.213 296.495 65.213C296.495 65.213 293.839 67.1228 292.954 67.1228C292.069 67.1228 291.134 64.9383 291.134 64.9383L290.003 59.001H295.514Z" fill="#FFD399"/>
<path d="M292.471 63.1346L299.153 62.2274C298.198 60.8269 295.511 59 295.511 59H290L291.131 64.9373C291.131 64.9373 292.066 67.1218 292.951 67.1218C293.025 67.1218 293.115 67.1041 293.212 67.0796L292.471 63.1346Z" fill="#EAB363"/>
<path d="M371.514 53.001C371.514 53.001 375.793 55.9095 375.472 57.2006C375.151 58.4917 372.495 59.213 372.495 59.213C372.495 59.213 369.839 61.1228 368.954 61.1228C368.069 61.1228 367.134 58.9383 367.134 58.9383L366.003 53.001H371.514Z" fill="#FFD399"/>
<path d="M368.471 57.1346L375.153 56.2274C374.198 54.8269 371.511 53 371.511 53H366L367.131 58.9373C367.131 58.9373 368.066 61.1218 368.951 61.1218C369.025 61.1218 369.115 61.1041 369.212 61.0796L368.471 57.1346Z" fill="#EAB363"/>
<path d="M340 68.1596C340 68.1596 341.03 73.077 343.391 73.4703C345.752 73.8636 347.916 69.7331 347.916 69.7331C347.916 69.7331 344.882 67.3766 340 68.1596Z" fill="#EAB363"/>
<path d="M346.023 68.7403C344.651 68.2104 342.584 67.7448 340 68.1593C340 68.1593 340.473 70.4158 341.513 71.9939C342.923 71.1599 344.935 69.8732 346.023 68.7403Z" fill="#FFD399"/>
<path d="M317.299 46C317.299 46 313.157 46.3632 313.349 46.8817C313.542 47.4003 310.199 46.9332 310.007 48.6882C309.815 50.4433 315.204 55.8494 315.965 58.1021C315.965 58.1021 319.149 57.3542 320.141 57.0393C321.133 56.724 332.977 56.9791 333.32 56.3698C333.662 55.7606 321.382 46.8933 317.299 46" fill="#EAB363"/>
<path d="M332.41 55.3607C329.502 55.6696 321.031 55.5328 320.199 55.7973C319.207 56.1122 316.023 56.8601 316.023 56.8601C315.347 54.8596 311.025 50.3741 310.199 48.1652C310.097 48.3173 310.028 48.4946 310.005 48.705C309.813 50.46 315.202 55.8661 315.963 58.1188C315.963 58.1188 319.147 57.3709 320.139 57.056C321.131 56.7407 332.976 56.9955 333.318 56.3866C333.379 56.2775 333.036 55.9041 332.41 55.3607" fill="#E2942D"/>
<path d="M35.5144 54.001C35.5144 54.001 39.7933 56.9095 39.4719 58.2006C39.1509 59.4916 36.495 60.213 36.495 60.213C36.495 60.213 33.8392 62.1228 32.9539 62.1228C32.0686 62.1228 31.134 59.9383 31.134 59.9383L30.0029 54.001H35.5144Z" fill="#FFD399"/>
<path d="M32.4714 58.1346L39.1527 57.2274C38.1977 55.8268 35.5115 54 35.5115 54H30L31.1314 59.9373C31.1314 59.9373 32.0657 62.1217 32.9509 62.1217C33.025 62.1217 33.1153 62.104 33.2118 62.0795L32.4714 58.1346Z" fill="#EAB363"/>
<path d="M13.7151 49.1175C13.2855 49.0216 9 52.3973 9 52.3973L10.2448 53.6235L19.4042 50.7297L18.6936 49.436L15.0708 48L13.7151 49.1175Z" fill="#EAB363"/>
<path d="M0.0776295 61.2429C0.383562 60.0338 7.12513 63.715 8.19562 64.036C9.26583 64.3574 8.74331 66.2173 8.74331 66.2173L1.9431 67.6867C1.9431 67.6867 -0.456783 63.3547 0.0776295 61.2429" fill="#EAB363"/>
<path d="M61.6678 65.6333C61.6678 65.6333 70.7932 60.9165 70.8709 59.2802C70.9484 57.6441 74.2453 63.6627 74.4141 64.6837C74.5828 65.7044 65.0364 70.1415 61.5245 68.6538C58.0127 67.1661 61.6678 65.6333 61.6678 65.6333" fill="#EAB363"/>
<path d="M74.414 64.7005C74.2452 63.6798 70.9483 57.6609 70.8709 59.2973C70.8695 59.3259 70.8645 59.3562 70.8576 59.3867C71.8371 60.8667 73.0506 63.2533 73.151 63.8619C73.3197 64.8829 63.7733 69.32 60.2614 67.8323C60.244 67.8249 60.2293 67.8175 60.2119 67.8098C60.4326 68.0909 60.8418 68.3817 61.5244 68.6709C65.0363 70.1587 74.5827 65.7211 74.414 64.7005" fill="#E2942D"/>
</svg>
