<svg width="167" height="116" viewBox="0 0 167 116" fill="none" xmlns="http://www.w3.org/2000/svg">
<rect y="64" width="49" height="52" fill="#EAB363"/>
<rect x="59" y="40" width="49" height="76" fill="#FF7222"/>
<rect x="118" y="79" width="49" height="37" fill="#F4CD9A"/>
<path d="M91.1338 27.128V31H78.1418V27.128H82.6858V17.432C82.4298 17.752 81.9924 18.0933 81.3738 18.456C80.7764 18.8187 80.1151 19.128 79.3898 19.384C78.6858 19.64 78.0564 19.768 77.5018 19.768V15.768C77.8858 15.768 78.3444 15.6507 78.8778 15.416C79.4324 15.16 79.9764 14.8613 80.5098 14.52C81.0644 14.1787 81.5338 13.848 81.9178 13.528C82.3231 13.1867 82.5791 12.92 82.6858 12.728H87.0698V27.128H91.1338Z" fill="black"/>
<path d="M17.1732 55C17.1732 53.82 17.3032 52.77 17.5632 51.85C17.8432 50.93 18.3232 50.1 19.0032 49.36C19.6832 48.62 20.6432 47.9 21.8832 47.2C22.9832 46.62 23.9032 46.13 24.6432 45.73C25.3832 45.33 25.9432 44.95 26.3232 44.59C26.7232 44.21 26.9232 43.77 26.9232 43.27C26.9232 42.67 26.6832 42.16 26.2032 41.74C25.7232 41.3 25.0432 41.08 24.1632 41.08C23.2032 41.08 22.3732 41.31 21.6732 41.77C20.9932 42.23 20.4032 42.76 19.9032 43.36L17.3532 40.42C17.7132 40.04 18.2532 39.63 18.9732 39.19C19.6932 38.75 20.5532 38.37 21.5532 38.05C22.5532 37.73 23.6532 37.57 24.8532 37.57C26.8932 37.57 28.4732 38.05 29.5932 39.01C30.7332 39.95 31.3032 41.17 31.3032 42.67C31.3032 43.61 31.0832 44.41 30.6432 45.07C30.2232 45.71 29.6932 46.26 29.0532 46.72C28.4332 47.16 27.8332 47.55 27.2532 47.89C25.9732 48.53 24.9632 49.09 24.2232 49.57C23.5032 50.05 22.9232 50.65 22.4832 51.37H31.6332V55H17.1732Z" fill="black"/>
<path d="M145.861 57.392C147.019 57.5787 147.952 58.1387 148.661 59.072C149.389 59.9867 149.753 61.088 149.753 62.376C149.753 63.552 149.455 64.5693 148.857 65.428C148.26 66.2867 147.411 66.9493 146.309 67.416C145.227 67.8827 143.948 68.116 142.473 68.116C139.636 68.116 137.471 67.22 135.977 65.428L138.105 62.768C138.591 63.384 139.169 63.86 139.841 64.196C140.532 64.532 141.372 64.7 142.361 64.7C143.5 64.7 144.368 64.4667 144.965 64C145.563 63.552 145.861 62.8707 145.861 61.956C145.861 60.9853 145.516 60.2387 144.825 59.716C144.135 59.1933 143.089 58.932 141.689 58.932H140.905V56.132H141.773C142.912 56.132 143.799 55.88 144.433 55.376C145.087 54.8533 145.413 54.1907 145.413 53.388C145.413 52.6413 145.152 52.0813 144.629 51.708C144.107 51.316 143.425 51.12 142.585 51.12C140.849 51.12 139.524 51.8667 138.609 53.36L136.257 50.728C136.649 50.168 137.181 49.6733 137.853 49.244C138.544 48.8147 139.328 48.4787 140.205 48.236C141.101 47.9933 142.035 47.872 143.005 47.872C144.275 47.872 145.385 48.0773 146.337 48.488C147.308 48.8987 148.064 49.4773 148.605 50.224C149.147 50.9707 149.417 51.8387 149.417 52.828C149.417 53.5747 149.268 54.2747 148.969 54.928C148.671 55.5627 148.251 56.104 147.709 56.552C147.187 56.9813 146.571 57.2613 145.861 57.392Z" fill="black"/>
</svg>
