<?xml version="1.0" encoding="UTF-8"?>
<svg width="144.63mm" height="55.221mm" version="1.1" viewBox="0 0 144.63 55.221" xmlns="http://www.w3.org/2000/svg" xmlns:cc="http://creativecommons.org/ns#" xmlns:dc="http://purl.org/dc/elements/1.1/" xmlns:rdf="http://www.w3.org/1999/02/22-rdf-syntax-ns#">
 <defs>
  <clipPath id="clipPath997-3-4">
   <path d="m0 780h1096v-780h-1096z"/>
  </clipPath>
  <clipPath id="clipPath1037-7-0">
   <path d="m254.61 170.09h29.414v-56.213h-29.414z"/>
  </clipPath>
  <clipPath id="clipPath1053-4-0">
   <path d="m140.55 169.47h45.725v-49.137h-45.725z"/>
  </clipPath>
 </defs>
 <metadata>
  <rdf:RDF>
   <cc:Work rdf:about="">
    <dc:format>image/svg+xml</dc:format>
    <dc:type rdf:resource="http://purl.org/dc/dcmitype/StillImage"/>
    <dc:title/>
   </cc:Work>
  </rdf:RDF>
 </metadata>
 <g transform="translate(-36.544 -26.818)">
  <g transform="matrix(.35278 0 0 -.35278 25.858 100.06)">
   <g clip-path="url(#clipPath997-3-4)">
    <g transform="translate(293.38 207.61)">
     <path d="m0 0s41.184-35.053 79.011-66.127 67.832-33.68 67.866-41.133c0.034-7.454-10.086-11.078-47.702-13.217-37.617-2.139-88.575-33.735-125.34-27.224 0 0-26.469 37.863-32.13 63.24-5.661 25.376 58.291 84.461 58.291 84.461" fill="#eab363"/>
    </g>
    <g transform="translate(272.34 59.248)">
     <path d="m0 0c9.999 37.366 22.699 118.62 26.515 143.71-3.492 2.96-5.473 4.646-5.473 4.646s-63.951-59.085-58.29-84.462c5.66-25.376 32.129-63.239 32.129-63.239 1.678-0.297 3.385-0.513 5.119-0.658" fill="#ffd399"/>
    </g>
    <g transform="translate(288.27 190.23)">
     <path d="m0 0s-38.069-46.743-40.702-57.787c-2.633-11.043 14.836-50.021 14.836-50.021s26.465 95.899 25.866 107.81" fill="#8c5e28"/>
    </g>
    <g transform="translate(212.18 128)">
     <path d="m0 0s14.5-9.858 13.411-14.234c-1.088-4.376-10.088-6.821-10.088-6.821s-9-6.473-12-6.473-6.167 7.404-6.167 7.404l-3.833 20.124z" fill="#ffd399"/>
    </g>
    <g transform="translate(114.92 205.36)">
     <path d="m0 0s-15.53-7.405-25.117-23.31c-9.588-15.905-42.304-85.939-51.385-95.163s-16.864-41.698 13.456-34.882c30.32 6.817 96.055 14.808 120.66 19.929 24.604 5.12 24.803 13.887 24.803 13.887s-48.321 109.44-82.415 119.54" fill="#eab363"/>
     <path d="m0 0s-1.261-0.602-3.282-1.828c-1.02-3.014-0.88-6.479 1.846-10.104 7.622-10.141 59.236-97.359 82.152-111.09 1.664 2.046 1.699 3.479 1.699 3.479s-48.321 109.44-82.415 119.54" fill="#ffd399"/>
    </g>
    <g transform="translate(201.88 113.99)">
     <path d="m0 0 22.641 3.075c-3.236 4.747-12.339 10.939-12.339 10.939h-18.677l3.834-20.124s3.166-7.404 6.166-7.404c0.251 0 0.557 0.06 0.884 0.143z" fill="#eab363"/>
    </g>
    <g transform="translate(140.33 166.33)">
     <path d="m0 0s86.043 11.333 143.69 0l-13.148-52.457s-67.207 17.124-100.54 6.457z" fill="#e6e6e6"/>
    </g>
    <g clip-path="url(#clipPath1037-7-0)" opacity=".10001">
     <g transform="translate(255.67 170.09)">
      <path d="m0 0c2.842-11.759 6.403-33.989-1.06-52.634 9.848-1.945 16.266-3.579 16.266-3.579l13.148 52.457c-8.913 1.752-18.506 2.962-28.354 3.756"/>
     </g>
    </g>
    <g clip-path="url(#clipPath1053-4-0)" opacity=".10001">
     <g transform="translate(141.77 166.51)">
      <path d="m0 0-1.226-0.507 29.787-45.674c4.728 1.513 10.137 2.465 15.938 2.988-9.38 12.97-12.603 33.984-13.703 46.148-15.498-1.148-26.926-2.479-30.796-2.955"/>
     </g>
    </g>
    <g transform="translate(212.18 85)">
     <path d="m0 0s3.489-16.667 11.489-18 15.334 12.667 15.334 12.667-10.281 7.987-26.823 5.333" fill="#eab363"/>
    </g>
    <g transform="translate(232.59 83.031)">
     <path d="m0 0c-4.651 1.796-11.653 3.374-20.411 1.969 0 0 1.604-7.648 5.126-12.997 4.778 2.827 11.599 7.188 15.285 11.028" fill="#ffd399"/>
    </g>
    <g transform="translate(103.67 187.93)">
     <path d="m0 0s-13.333-16.248-19.333-28.589 0.666-1.659 14 0c13.333 1.659 21.333 3.23 19.333 9.778-2 6.547-14 18.811-14 18.811" fill="#f4cd9a"/>
    </g>
    <g transform="translate(306.33 187.93)">
     <path d="m0 0s33.333-32.66 39.333-34.462-6-15.889-16-10.845c-10 5.043-30.815 4.339-30.815 4.339z" fill="#f4cd9a"/>
    </g>
   </g>
  </g>
 </g>
</svg>
