<?xml version="1.0" encoding="UTF-8"?>
<svg width="98.203mm" height="61.415mm" version="1.1" viewBox="0 0 98.203 61.415" xmlns="http://www.w3.org/2000/svg" xmlns:cc="http://creativecommons.org/ns#" xmlns:dc="http://purl.org/dc/elements/1.1/" xmlns:rdf="http://www.w3.org/1999/02/22-rdf-syntax-ns#">
 <metadata>
  <rdf:RDF>
   <cc:Work rdf:about="">
    <dc:format>image/svg+xml</dc:format>
    <dc:type rdf:resource="http://purl.org/dc/dcmitype/StillImage"/>
    <dc:title/>
   </cc:Work>
  </rdf:RDF>
 </metadata>
 <g transform="translate(-83.946 -78.906)">
  <g transform="matrix(.35278 0 0 -.35278 254.03 -357.34)">
   <g transform="translate(-320.2 -1340.5)">
    <path d="m0 0s-14.976-1.129-14.28-2.741-11.39-0.16-12.083-5.616c-0.694-5.456 18.787-22.262 21.54-29.265 0 0 11.51 2.325 15.096 3.304 3.586 0.98 46.406 0.187 47.645 2.081 1.238 1.894-43.158 29.46-57.918 32.237" fill="#eab363"/>
   </g>
   <g transform="translate(-265.57 -1369.6)">
    <path d="m0 0c-10.515-0.96-41.138-0.535-44.147-1.357-3.586-0.979-15.095-3.304-15.095-3.304-2.446 6.219-18.071 20.163-21.056 27.03-0.368-0.473-0.618-1.024-0.701-1.678-0.693-5.456 18.787-22.262 21.541-29.265 0 0 11.509 2.325 15.095 3.304 3.586 0.98 46.407 0.188 47.645 2.081 0.222 0.339-1.019 1.5-3.282 3.189" fill="#e2942d"/>
   </g>
   <g transform="translate(-283.55 -1380.4)">
    <path d="m0 0c-1.553 0.298-17.046-10.196-17.046-10.196l4.5-3.812 33.113 8.996-2.569 4.022-13.097 4.464z" fill="#eab363"/>
   </g>
   <g transform="translate(-364.57 -1390.7)">
    <path d="m0 0c1.106 3.759 25.478-7.685 29.348-8.683 3.869-0.999 1.98-6.781 1.98-6.781l-24.584-4.568s-8.676 13.467-6.744 20.032" fill="#eab363"/>
   </g>
   <g transform="translate(-249.85 -1374.2)">
    <path d="m0 0s32.99 14.663 33.271 19.75c0.28 5.086 12.199-13.624 12.809-16.798 0.61-3.173-33.902-16.967-46.598-12.342s0.518 9.39 0.518 9.39" fill="#eab363"/>
   </g>
   <g transform="translate(-203.77 -1371.3)">
    <path d="m0 0c-0.61 3.173-12.529 21.884-12.809 16.797-5e-3 -0.089-0.023-0.183-0.048-0.278 3.541-4.601 7.928-12.02 8.291-13.912 0.61-3.174-33.902-16.968-46.598-12.343-0.063 0.023-0.116 0.046-0.179 0.07 0.798-0.874 2.277-1.778 4.745-2.677 12.696-4.625 47.208 9.17 46.598 12.343" fill="#e2942d"/>
   </g>
   <g transform="rotate(52.676 -323.99 -1289.4)">
    <g transform="translate(-273.37 -1268.9)" fill="#eab363">
     <path d="m0 0c-17.051 25.273-55.114 32.475-55.114 32.475s-15.111 10.645-25.632 12.01c-7.818 1.015-29.56-14.752-40.218-22.922-3.685-2.826-6.048-4.745-6.048-4.745-9.087-7.048-10.413-40.24-10.413-40.24l6.236-7.016 12.994-13.448 26.523 11.268s3.444-5.293 4.041-11.933c0.256-2.854-0.033-6.418-1.33-9.457-7e-3 -0.033-0.022-0.518-0.022-0.518h-0.01c-1.264-2-3.611-5.531-7.459-8.12-13.944-9.382-31.962-18.301-43.007-20.775 0.908-1.594 2.072-2.52 2.072-2.52 34.801-2.312 51.505 30.183 53.329 34.792 1.824 4.608 5.087-0.252 5.087-0.252-0.79-35.67 34.856-86.679 34.856-86.679 28.737-5.51 38.53 22.607 55.796 58.152 17.267 35.546 5.37 54.655-11.681 79.928"/>
     <path d="m0 0c-17.051 25.273-55.114 32.475-55.114 32.475s-15.111 10.645-25.632 12.01c-7.818 1.015-29.56-14.752-40.218-22.922-3.685-2.826-6.048-4.745-6.048-4.745-9.087-7.048-10.413-40.24-10.413-40.24l6.236-7.016 12.994-13.448 26.523 11.268s3.444-5.293 4.041-11.933c0.256-2.854-0.033-6.418-1.33-9.457-7e-3 -0.033-0.022-0.518-0.022-0.518h-0.01c-1.264-2-3.611-5.531-7.459-8.12-13.944-9.382-31.962-18.301-43.007-20.775 0.908-1.594 2.072-2.52 2.072-2.52 34.801-2.312 51.505 30.183 53.329 34.792 1.824 4.608 5.087-0.252 5.087-0.252-0.79-35.67 34.856-86.679 34.856-86.679 28.737-5.51 38.53 22.607 55.796 58.152 17.267 35.546 5.37 54.655-11.681 79.928"/>
    </g>
    <g transform="translate(-356.85 -1242.3)">
     <path d="m0 0c-1.636-9.563-0.656-59.361-0.249-76.992 1.157 2.086 2.714 1.201 3.726 0.233 1.788 22.887 6.715 73.382 7.107 80.492 0.475 8.608-8.589 7.931-10.584-3.733" fill="#e2942d"/>
    </g>
    <g transform="translate(-314.32 -1399.3)">
     <path d="m0 0s21.6 14.507 29.574 23.878c7.974 9.372 13.948 18.068 13.948 18.068s-13.878-31.023-22.657-37.21c-8.779-6.188-10.986-7.454-20.865-4.736" fill="#8c5e28"/>
    </g>
    <g transform="translate(-361 -1313.4)">
     <path d="m0 0c-0.495-5.155-1.221-8.548-1.32-8.993 1.297 3.039 1.576 6.139 1.32 8.993" fill="#8c5e28"/>
    </g>
    <g transform="translate(-407.81 -1326.9)">
     <path d="m0 0c-2.594-0.323-5.256-0.659-7.98-1.007-4.271-12.544 0.766-24.614 2.958-24.123 11.044 2.474 29.068 11.625 43.012 21.007 3.848 2.589 6.163 5.554 7.468 8.584-5.511 0.191-22.829-1.641-45.458-4.461" fill="#8c5e28"/>
    </g>
    <g transform="translate(-362.34 -1322.5)">
     <path d="m0 0s5e-3 0.021 0.012 0.054c-8e-3 -0.018-0.015-0.036-0.022-0.054h0.01" fill="#e6e6e6"/>
    </g>
    <g transform="translate(-342.07 -1239.1)">
     <path d="m0 0c-1.881-1.47 1-25.335 0-33.335s3 0.5 13.5 5.5 33.022 2.5 36.011-0.5-18.811 25.534-34.011 25c-15.2-0.533-11.001 6.85-15.5 3.335" fill="#f4cd9a"/>
    </g>
   </g>
   <g transform="translate(2.915 23.396)">
    <g transform="translate(-484.83 -1358.1)">
     <path d="m0 0s46.558 4.496 52.122 5.759c5.564 1.262 26.128-3.012 30.043-10.292 3.916-7.28 43.366-60.476 43.366-60.476s-53.295-5.693-91.952 19.202-33.579 45.807-33.579 45.807" fill="#eab363"/>
    </g>
    <g transform="translate(-450.95 -1398.4)">
     <path d="m0 0c-26.761 17.234-32.561 32.557-33.597 40.357-0.185-0.018-0.284-0.027-0.284-0.027s-5.078-20.913 33.579-45.808 91.952-19.201 91.952-19.201-1.453 1.96-3.825 5.172c-13.224-0.742-55.605-1.242-87.825 19.507" fill="#e2942d"/>
    </g>
   </g>
  </g>
 </g>
</svg>
