<?xml version="1.0" encoding="UTF-8"?>
<svg width="69.326mm" height="62.087mm" version="1.1" viewBox="0 0 69.326 62.087" xmlns="http://www.w3.org/2000/svg" xmlns:cc="http://creativecommons.org/ns#" xmlns:dc="http://purl.org/dc/elements/1.1/" xmlns:rdf="http://www.w3.org/1999/02/22-rdf-syntax-ns#">
 <metadata>
  <rdf:RDF>
   <cc:Work rdf:about="">
    <dc:format>image/svg+xml</dc:format>
    <dc:type rdf:resource="http://purl.org/dc/dcmitype/StillImage"/>
    <dc:title/>
   </cc:Work>
  </rdf:RDF>
 </metadata>
 <g transform="translate(-77.974 -59.671)">
  <g transform="matrix(.30521 .17692 .17692 -.30521 65.592 50.202)">
   <g transform="translate(170.13 67.506)">
    <path d="m0 0s-15.53-7.405-25.117-23.31c-9.588-15.905-42.304-85.939-51.385-95.163s-16.864-41.698 13.456-34.882c30.32 6.817 96.055 14.808 120.66 19.929 24.604 5.12 24.803 13.887 24.803 13.887s-48.321 109.44-82.415 119.54" fill="#eab363"/>
    <path d="m0 0s-1.261-0.602-3.282-1.828c-1.02-3.014-0.88-6.479 1.846-10.104 7.622-10.141 59.236-97.359 82.152-111.09 1.664 2.046 1.699 3.479 1.699 3.479s-48.321 109.44-82.415 119.54" fill="#ffd399"/>
   </g>
   <g transform="translate(111.58 -119)">
    <g transform="translate(155.81 109.14)">
     <path d="m0 0s14.5-9.858 13.411-14.234c-1.088-4.376-10.088-6.821-10.088-6.821s-9-6.473-12-6.473-6.167 7.404-6.167 7.404l-3.833 20.124z" fill="#ffd399"/>
    </g>
    <g transform="translate(145.5 95.129)">
     <path d="m0 0 22.641 3.075c-3.236 4.747-12.339 10.939-12.339 10.939h-18.677l3.834-20.124s3.166-7.404 6.166-7.404c0.251 0 0.557 0.06 0.884 0.143z" fill="#eab363"/>
    </g>
    <g transform="translate(155.81 66.142)">
     <path d="m0 0s3.489-16.667 11.489-18 15.334 12.667 15.334 12.667-10.281 7.987-26.823 5.333" fill="#eab363"/>
    </g>
    <g transform="translate(176.22 64.174)">
     <path d="m0 0c-4.651 1.796-11.653 3.374-20.411 1.969 0 0 1.604-7.648 5.126-12.997 4.778 2.827 11.599 7.188 15.285 11.028" fill="#ffd399"/>
    </g>
   </g>
   <g transform="translate(158.88 50.072)">
    <path d="m0 0s-13.333-16.248-19.333-28.589 0.666-1.659 14 0c13.333 1.659 21.333 3.23 19.333 9.778-2 6.547-14 18.811-14 18.811" fill="#f4cd9a"/>
   </g>
  </g>
 </g>
</svg>
